<svg width="701" height="222" viewBox="0 0 701 222" fill="none" xmlns="http://www.w3.org/2000/svg">
<path d="M28.8675 218.62C10.0608 218.62 0.657462 216.553 0.657462 212.42V11.54C0.657462 4.51332 3.8608 0.999985 10.2675 0.999985H64.8275C95.4141 0.999985 117.424 7.30332 130.857 19.91C144.497 32.5167 151.317 50.8067 151.317 74.78C151.317 94.62 144.911 112.807 132.097 129.34C125.691 137.607 116.287 144.22 103.887 149.18C91.4875 154.14 77.0208 156.62 60.4875 156.62V212.11C60.4875 214.59 56.5608 216.347 48.7075 217.38C41.0608 218.207 34.4475 218.62 28.8675 218.62ZM60.4875 54.94V103.92H64.5175C71.7508 103.92 77.8475 101.647 82.8075 97.1C87.7675 92.5533 90.2475 86.1467 90.2475 77.88C90.2475 69.6133 88.4908 63.7233 84.9775 60.21C81.6708 56.6967 75.6775 54.94 66.9975 54.94H60.4875ZM175.594 64.86C175.594 62.5867 184.481 61.45 202.254 61.45C220.028 61.45 228.914 62.5867 228.914 64.86V155.38C228.914 165.713 232.221 170.88 238.834 170.88C243.794 170.88 249.374 168.71 255.574 164.37V64.86C255.574 62.7933 264.358 61.76 281.924 61.76C299.491 61.76 308.274 62.7933 308.274 64.86V166.54H316.334C323.361 166.54 326.874 173.257 326.874 186.69C326.874 193.51 325.428 200.433 322.534 207.46C318.401 216.553 312.821 221.1 305.794 221.1C291.948 221.1 281.718 215.417 275.104 204.05L274.794 204.36C262.188 215.52 248.651 221.1 234.184 221.1C214.138 221.1 199.361 216.14 189.854 206.22C180.348 196.093 175.594 179.457 175.594 156.31V64.86ZM402.187 215.52C402.187 217.38 391.647 218.31 370.567 218.31C354.034 218.103 345.767 217.277 345.767 215.83V4.71999C345.767 1.62 355.791 0.0699972 375.837 0.0699972C393.404 0.689989 402.187 1.72332 402.187 3.16999V215.52ZM436.74 162.2C453.48 172.327 466.707 177.39 476.42 177.39C482.62 177.39 485.72 175.22 485.72 170.88C485.72 167.78 480.347 163.75 469.6 158.79C443.767 148.25 430.85 130.993 430.85 107.02C430.85 91.7267 436.43 80.05 447.59 71.99C458.75 63.93 472.08 59.9 487.58 59.9C503.287 59.9 516.514 61.5533 527.26 64.86C538.214 68.1667 543.69 72.5067 543.69 77.88C543.69 82.4267 541.417 88.42 536.87 95.86C532.53 103.3 529.534 107.33 527.88 107.95C518.994 102.99 509.384 100.51 499.05 100.51C493.47 100.51 490.68 102.473 490.68 106.4C490.68 108.88 491.714 111.05 493.78 112.91C496.054 114.563 500.084 116.733 505.87 119.42C511.657 121.9 516.41 124.173 520.13 126.24C524.057 128.307 528.397 131.2 533.15 134.92C543.07 142.773 548.03 153.003 548.03 165.61C548.03 182.143 542.554 195.577 531.6 205.91C520.647 216.037 504.114 221.1 482 221.1C467.327 221.1 453.997 218.62 442.01 213.66C430.024 208.7 424.03 201.88 424.03 193.2C424.03 187.413 425.374 181.317 428.06 174.91C430.954 168.503 433.847 164.267 436.74 162.2ZM686.971 209.63C673.951 217.277 657.211 221.1 636.751 221.1C616.291 221.1 599.034 214.177 584.981 200.33C570.927 186.277 563.901 166.953 563.901 142.36C563.901 117.56 570.617 97.6167 584.051 82.53C597.691 67.4433 614.844 59.9 635.511 59.9C656.177 59.9 672.091 65.17 683.251 75.71C694.617 86.25 700.301 99.0633 700.301 114.15C700.301 147.63 681.081 164.37 642.641 164.37H621.251C621.251 170.57 622.904 174.91 626.211 177.39C629.724 179.663 634.787 180.8 641.401 180.8C655.867 180.8 669.611 177.493 682.631 170.88C682.837 170.673 683.767 172.12 685.421 175.22C690.381 184.107 692.861 191.65 692.861 197.85C692.861 203.843 690.897 207.77 686.971 209.63ZM648.221 120.04C648.221 111.36 643.984 107.02 635.511 107.02C631.584 107.02 628.174 108.26 625.281 110.74C622.594 113.013 621.251 116.423 621.251 120.97V130.58H637.991C644.811 130.58 648.221 127.067 648.221 120.04Z" fill="black" fill-opacity="0.03"/>
</svg>
